# xmcd
#
# Track frame offsets: 
#        150
#        34792
#        57036
#        84268
#        110417
#        136682
#        162285
#        183920
#
# Disc length: 2827 seconds
#
# Revision: 0
# Processed by: cddbd v1.5.2PL0 Copyright (c) Steve Scherf et al.
# Submitted via: ExactAudioCopyFreeDBPlugin 1.0
#
DISCID=570b0908
DTITLE=Srikanto, Joy, Srijato - Musafirana
DYEAR=2011
DGENRE=Bengali Modern
TTITLE0=Eshechhi Abaar
TTITLE1=Kano Dishehara
TTITLE2=Chhera Chithi
TTITLE3=Ja Kichhu Bhalo
TTITLE4=Ghum Theke Ghume
TTITLE5=Kokhono Boshe
TTITLE6=Rakha Thak
TTITLE7=Purechhe Shob
EXTD=
EXTT0=
EXTT1=
EXTT2=
EXTT3=
EXTT4=
EXTT5=
EXTT6=
EXTT7=
PLAYORDER=
